<svg id="Layer_1" enable-background="new 0 0 512 512" height="512" viewBox="0 0 512 512" width="512" xmlns="http://www.w3.org/2000/svg"><g><path d="m288.605 329.409v37.355c0 9.379 7.603 16.982 16.982 16.982h47.485c12.08 0 21.873 9.793 21.873 21.873v27.074h-234.49v-27.074c0-12.08 9.793-21.873 21.873-21.873h47.485c9.379 0 16.982-7.603 16.982-16.982v-37.243c0-8.305-5.255-15.701-13.097-18.434l-22.637-7.889c-62.897-21.92-105.04-81.235-105.04-147.842v-130.83h339.96v131.73c0 66.167-41.595 125.19-103.908 147.443l-20.511 7.325c-7.77 2.775-12.957 10.134-12.957 18.385z" fill="#fece3f"/><g fill="#fdb720"><path d="m353.071 383.745h-30.905c12.08 0 21.873 9.793 21.873 21.873v27.074h30.905v-27.074c.001-12.08-9.792-21.873-21.873-21.873z"/><path d="m395.074 24.526v131.73c0 66.166-41.595 125.19-103.908 147.443l-20.511 7.325c-7.77 2.775-12.956 10.134-12.956 18.384v37.355c0 9.379 7.603 16.982 16.982 16.982h30.905c-9.379 0-16.982-7.603-16.982-16.982v-37.355c0-8.25 5.186-15.61 12.956-18.384l20.511-7.325c62.312-22.253 103.908-81.276 103.908-147.443v-131.73z"/></g><path d="m391.157 512h-270.314c-2.209 0-4-1.791-4-4v-84.716c0-2.209 1.791-4 4-4h270.313c2.209 0 4 1.791 4 4v84.716c.001 2.209-1.79 4-3.999 4z" fill="#ca6633"/><path d="m364.251 419.284v92.716h26.905c2.209 0 4-1.791 4-4v-84.716c0-2.209-1.791-4-4-4z" fill="#ae5121"/><path d="m180.797 465.642c0-8.534 6.918-15.453 15.453-15.453h119.501c8.534 0 15.453 6.918 15.453 15.453 0 8.534-6.918 15.453-15.453 15.453h-119.502c-8.534-.001-15.452-6.919-15.452-15.453z" fill="#efefef"/><ellipse cx="256" cy="166.826" fill="#fdb720" rx="95.905" ry="95.905" transform="matrix(.707 -.707 .707 .707 -42.983 229.882)"/><path d="m288.997 165.364 36.973-13.647 25.855 18.779c.056-1.215.079-2.438.079-3.669 0-22.388-7.672-42.988-20.537-59.309l-9.681 29.792-36.972 13.646-21.214-15.413v-40.112l25.641-18.624c-10.332-3.804-21.49-5.885-33.141-5.885s-22.809 2.081-33.141 5.885l25.641 18.624v40.112l-20.724 15.057-37.263-12.681-9.88-30.401c-12.866 16.32-20.537 36.921-20.537 59.309 0 1.231.024 2.454.079 3.669l25.365-18.423 37.265 12.682 8.042 24.75-22.683 30.675h-31.859c12.516 18.671 31.426 32.696 53.591 38.954l-9.734-29.952 22.683-30.675h26.656l22.229 31.01-9.625 29.617c22.166-6.258 41.075-20.283 53.591-38.954h-32.204l-22.229-31.01z" fill="#fca309"/><path d="m428.047 30.905h-344.094c-8.534 0-15.453-6.918-15.453-15.453 0-8.534 6.918-15.452 15.453-15.452h344.095c8.534 0 15.453 6.918 15.453 15.453-.001 8.534-6.919 15.452-15.454 15.452z" fill="#fdb720"/><path d="m428.047 0h-30.907c8.535 0 15.453 6.919 15.453 15.453s-6.919 15.453-15.453 15.453h30.907c8.535 0 15.453-6.919 15.453-15.453s-6.919-15.453-15.453-15.453z" fill="#fca309"/></g></svg>