<svg height="512" viewBox="0 0 512 512" width="512" xmlns="http://www.w3.org/2000/svg"><g><g><path d="m72 16h368v480h-368z" fill="#5f4d37"/><path d="m320 48h88v384l-40 40h-264v-424h88z" fill="#ffeb99"/><g fill="#ffda44"><path d="m360 472v-48h48z"/><path d="m144 120h64v64h-64z"/><path d="m144 216h64v64h-64z"/><path d="m144 312h64v64h-64z"/><path d="m192 16h128a0 0 0 0 1 0 0v40a16 16 0 0 1 -16 16h-96a16 16 0 0 1 -16-16v-40a0 0 0 0 1 0 0z"/></g></g><g><path d="m440 8h-368a8 8 0 0 0 -8 8v480a8 8 0 0 0 8 8h368a8 8 0 0 0 8-8v-480a8 8 0 0 0 -8-8zm-240 16h112v32a8.011 8.011 0 0 1 -8 8h-96a8.011 8.011 0 0 1 -8-8zm8 56h96a24.032 24.032 0 0 0 24-24h72v360h-40a8 8 0 0 0 -8 8v40h-240v-408h72a24.032 24.032 0 0 0 24 24zm188.69 352-28.69 28.69v-28.69zm35.31 56h-352v-464h104v16h-80a8 8 0 0 0 -8 8v424a8 8 0 0 0 8 8h264a8.008 8.008 0 0 0 5.66-2.34l40-40a8.008 8.008 0 0 0 2.34-5.66v-384a8 8 0 0 0 -8-8h-80v-16h104z"/><path d="m208 112h-64a8 8 0 0 0 -8 8v64a8 8 0 0 0 8 8h64a8 8 0 0 0 8-8v-64a8 8 0 0 0 -8-8zm-8 64h-48v-48h48z"/><path d="m232 120a8 8 0 0 0 8 8h128a8 8 0 0 0 0-16h-128a8 8 0 0 0 -8 8z"/><path d="m368 144h-128a8 8 0 0 0 0 16h128a8 8 0 0 0 0-16z"/><path d="m240 192h64a8 8 0 0 0 0-16h-64a8 8 0 0 0 0 16z"/><path d="m336 192a8 8 0 0 0 0-16h-8a8 8 0 0 0 0 16z"/><path d="m208 208h-64a8 8 0 0 0 -8 8v64a8 8 0 0 0 8 8h64a8 8 0 0 0 8-8v-64a8 8 0 0 0 -8-8zm-8 64h-48v-48h48z"/><path d="m368 208h-128a8 8 0 0 0 0 16h128a8 8 0 0 0 0-16z"/><path d="m368 240h-128a8 8 0 0 0 0 16h128a8 8 0 0 0 0-16z"/><path d="m240 288h64a8 8 0 0 0 0-16h-64a8 8 0 0 0 0 16z"/><path d="m336 288a8 8 0 0 0 0-16h-8a8 8 0 0 0 0 16z"/><path d="m208 304h-64a8 8 0 0 0 -8 8v64a8 8 0 0 0 8 8h64a8 8 0 0 0 8-8v-64a8 8 0 0 0 -8-8zm-8 64h-48v-48h48z"/><path d="m368 304h-128a8 8 0 0 0 0 16h128a8 8 0 0 0 0-16z"/><path d="m368 336h-128a8 8 0 0 0 0 16h128a8 8 0 0 0 0-16z"/><path d="m304 368h-64a8 8 0 0 0 0 16h64a8 8 0 0 0 0-16z"/><path d="m336 368h-8a8 8 0 0 0 0 16h8a8 8 0 0 0 0-16z"/></g></g></svg>